<svg width="307" height="94" viewBox="0 0 307 94" fill="none" xmlns="http://www.w3.org/2000/svg">
<path fill-rule="evenodd" clip-rule="evenodd" d="M294.214 24H47V69.3509H306.364V35.9954L306.24 36.1197L294.214 24Z" fill="#F6F6F6"/>
<circle cx="304" cy="26" r="2" fill="white"/>
<rect x="92" y="54" width="1" height="10" fill="#525252"/>
<rect x="92" y="65" width="1" height="11" transform="rotate(-90 92 65)" fill="#525252"/>
<rect x="92" y="30" width="0.8" height="8" fill="#676767"/>
<rect x="112.8" y="30" width="0.8" height="8" fill="#989898"/>
<rect x="114.4" y="30" width="0.8" height="8" fill="#989898"/>
<rect x="145.6" y="30" width="0.8" height="8" fill="#989898"/>
<rect x="149.6" y="30" width="0.8" height="8" fill="#989898"/>
<rect x="129.6" y="30" width="0.8" height="8" fill="#989898"/>
<rect x="131.2" y="30" width="0.8" height="8" fill="#989898"/>
<rect x="100.8" y="30.8" width="4.8" height="6.4" fill="#404040"/>
<rect x="116" y="30.8" width="12.8" height="6.4" fill="#404040"/>
<rect x="108.8" y="30" width="1.6" height="8" fill="#757575"/>
<rect x="123.2" y="30" width="3.2" height="8" fill="#757575"/>
<rect x="137.6" y="30" width="3.2" height="8" fill="#757575"/>
<rect x="155.2" y="30" width="0.8" height="8" fill="#757575"/>
<rect x="96.95" y="30.15" width="2.9" height="7.7" stroke="#757575" stroke-width="0.3"/>
<rect x="141.7" y="30.1" width="2.2" height="7.8" stroke="#A4A4A4" stroke-width="0.2"/>
<circle cx="47" cy="47" r="37.1053" fill="white"/>
<path d="M3.03641 63.6194C0.748538 57.5672 -0.265093 51.1078 0.0589991 44.6458L6.30709 44.9591C6.02614 50.561 6.90485 56.1606 8.8882 61.4072L3.03641 63.6194Z" fill="#F7F7F7"/>
<path d="M37.2045 82.1883C36.0196 86.4447 31.5618 88.9973 27.5856 87.0709C23.3546 85.0209 19.4594 82.3062 16.0547 79.0154C10.7244 73.8632 6.76486 67.4618 4.53523 60.3918C2.30561 53.3217 1.8765 45.8069 3.28683 38.529C4.69717 31.2512 7.90232 24.4406 12.6115 18.7152C17.3207 12.9898 23.3848 8.5308 30.2538 5.74271C37.1228 2.95462 44.5792 1.92568 51.9466 2.74926C59.314 3.57284 66.3591 6.22286 72.4429 10.4589C76.3289 13.1646 79.7441 16.4628 82.5719 20.2188C85.2294 23.7486 83.5849 28.6151 79.6371 30.599L65.8903 37.5071C62.4271 39.2474 58.2511 37.6241 55.0703 35.4093V35.4093C53.1406 34.0657 50.9059 33.2251 48.569 32.9639C46.2321 32.7026 43.867 33.029 41.6882 33.9134C39.5094 34.7977 37.5858 36.2121 36.0921 38.0282C34.5984 39.8442 33.5817 42.0045 33.1344 44.313C32.687 46.6215 32.8231 49.0052 33.5304 51.2478C34.2376 53.4903 35.4935 55.5209 37.1843 57.1551V57.1551C39.9711 59.8488 42.3697 63.6331 41.3303 67.367L37.2045 82.1883Z" fill="white"/>
<path d="M13.2272 29.7354C16.0462 24.2208 20.1729 19.4803 25.2465 15.9282C30.3201 12.3762 36.1864 10.1205 42.3328 9.35844L42.7177 12.4628C37.0782 13.162 31.6957 15.2316 27.0405 18.4908C22.3853 21.7499 18.599 26.0994 16.0124 31.1593L13.2272 29.7354Z" fill="#CECECE"/>
<path d="M10.3535 34.3928C10.4387 34.1452 10.5264 33.8985 10.6166 33.6527L11.0424 33.8089C10.9533 34.0518 10.8666 34.2957 10.7824 34.5404L10.3535 34.3928Z" fill="#FF9B02"/>
<path d="M9.83952 35.9999C9.91384 35.7488 9.99071 35.4985 10.0701 35.249L10.5023 35.3865C10.4238 35.6331 10.3479 35.8805 10.2744 36.1286L9.83952 35.9999Z" fill="#676767"/>
<path d="M9.43534 37.4711C9.49972 37.2173 9.56668 36.9642 9.63619 36.7117L10.0735 36.8321C10.0048 37.0816 9.93859 37.3318 9.87496 37.5826L9.43534 37.4711Z" fill="#676767"/>
<path d="M26.2599 79.7376C23.5176 78.0003 21.0044 75.9253 18.7795 73.5614L19.1098 73.2505C21.3087 75.5868 23.7924 77.6375 26.5027 79.3545L26.2599 79.7376Z" fill="#960000"/>
<path d="M10.9931 32.668C11.0899 32.4248 11.1892 32.1825 11.291 31.9412L11.7089 32.1174C11.6083 32.3559 11.5102 32.5953 11.4145 32.8358L10.9931 32.668Z" fill="#676767"/>
<path d="M11.7606 30.8729C11.8695 30.6348 11.9809 30.3978 12.0947 30.1619L12.5032 30.359C12.3907 30.5921 12.2806 30.8263 12.173 31.0616L11.7606 30.8729Z" fill="#FF9B02"/>
<path d="M63.9021 7.27045C64.5507 5.74583 66.318 5.02702 67.7973 5.77321C76.8849 10.3571 84.2061 17.8192 88.6159 26.9925C89.3337 28.4858 88.5813 30.2391 87.0446 30.8585L80.028 33.6868C78.4913 34.3063 76.7556 33.5545 75.9976 32.0812C72.9849 26.2249 68.2667 21.4159 62.469 18.2921C61.0104 17.5062 60.2919 15.7565 60.9405 14.2319L63.9021 7.27045Z" fill="#F7F7F7"/>
<path d="M32.1273 75.314C31.8705 75.8029 31.265 75.9924 30.784 75.7208C24.2551 72.0348 19.1761 66.2327 16.3862 59.2735C16.1807 58.7609 16.4486 58.1857 16.9672 57.9958L19.1093 57.2116C19.6279 57.0217 20.2007 57.2891 20.4085 57.8008C22.83 63.7631 27.1864 68.7397 32.776 71.9288C33.2557 72.2025 33.4449 72.8056 33.1881 73.2945L32.1273 75.314Z" fill="white" fill-opacity="0.7"/>
<path d="M80.2168 20.4457C81.0796 19.756 82.342 19.8937 82.9923 20.7866C84.1923 22.4343 85.2778 24.1624 86.241 25.9588C86.763 26.9323 86.3389 28.1294 85.343 28.6071L83.2571 29.6077C82.2612 30.0854 81.0712 29.6624 80.542 28.6929C79.7946 27.3235 78.964 26.0011 78.055 24.7333C77.4113 23.8356 77.547 22.58 78.4097 21.8903L80.2168 20.4457Z" fill="#DDDDDD" fill-opacity="0.7"/>
<path d="M29.3677 83.3531C24.5938 81.0376 20.3226 77.8044 16.7982 73.8383C13.2737 69.8721 10.565 65.2506 8.82656 60.2376C7.08816 55.2246 6.35417 49.9183 6.66649 44.6216C6.97882 39.325 8.33134 34.1417 10.6468 29.3677L11.3263 29.6973C9.05409 34.382 7.72685 39.4684 7.42037 44.6661C7.11388 49.8638 7.83415 55.0709 9.54005 59.9902C11.246 64.9095 13.9041 69.4446 17.3627 73.3367C20.8213 77.2287 25.0126 80.4014 29.6973 82.6736L29.3677 83.3531Z" fill="#FF9B02"/>
<path d="M23.7577 13.9508C24.3738 13.5176 25.0019 13.1016 25.6412 12.7035L26.0405 13.3445C25.4131 13.7352 24.7967 14.1434 24.1922 14.5686L23.7577 13.9508Z" fill="#FF9B02"/>
<path d="M26.1539 12.3895C26.7991 12.0009 27.455 11.6304 28.1209 11.2784L28.4738 11.9461C27.8203 12.2915 27.1767 12.655 26.5435 13.0364L26.1539 12.3895Z" fill="#FF9B02"/>
<path d="M28.6676 10.9948C29.3388 10.6531 30.0194 10.3302 30.7086 10.0265L31.0131 10.7176C30.3368 11.0156 29.6689 11.3324 29.0103 11.6678L28.6676 10.9948Z" fill="#FF9B02"/>
<path d="M31.5082 10.0945C31.4274 9.90221 31.5175 9.67997 31.7105 9.60105C31.7139 9.59966 31.7173 9.59827 31.7207 9.59688C31.9138 9.51802 32.1337 9.61358 32.2108 9.80736V9.80736C32.2875 10.0003 32.1935 10.2195 32.0013 10.298V10.298C31.8091 10.3766 31.5885 10.2859 31.5082 10.0945V10.0945Z" fill="#FF9B02"/>
<ellipse cx="66.3772" cy="10.307" rx="1.23684" ry="1.23684" fill="#FF9B02"/>
<ellipse cx="71.3246" cy="13.6053" rx="1.23684" ry="1.23684" fill="#FF9B02"/>
<ellipse cx="76.2719" cy="17.7281" rx="1.23684" ry="1.23684" fill="#FF9B02"/>
<path d="M62.7812 14.3313C69.7649 17.7049 75.4837 23.2277 79.0987 30.0896L78.7389 30.2792C75.1644 23.4942 69.5097 18.0333 62.6043 14.6975L62.7812 14.3313Z" fill="#F6F6F6"/>
<path d="M62.4226 15.0738C69.2475 18.3707 74.8364 23.768 78.3692 30.474L78.0176 30.6592C74.5243 24.0285 68.9982 18.6916 62.2497 15.4317L62.4226 15.0738Z" fill="#F6F6F6"/>
<path d="M58.43 81.4331C52.8882 83.2727 46.9842 83.7475 41.2197 82.8172C35.4551 81.8869 30.0002 79.579 25.3184 76.0895C20.6366 72.6 16.8663 68.032 14.3276 62.7736C11.7889 57.5152 10.557 51.7217 10.7364 45.8853C10.9158 40.0489 12.5012 34.342 15.3581 29.2494C18.2149 24.1568 22.2587 19.8291 27.146 16.6337C32.0333 13.4383 37.6196 11.4698 43.4304 10.8953C49.2412 10.3208 55.1049 11.1573 60.5233 13.3338L60.2339 14.0541C54.9315 11.9242 49.1933 11.1056 43.5068 11.6678C37.8203 12.23 32.3535 14.1564 27.5708 17.2834C22.7881 20.4104 18.8308 24.6456 16.0351 29.6292C13.2394 34.6128 11.6879 40.1976 11.5123 45.9091C11.3367 51.6206 12.5423 57.2902 15.0267 62.4361C17.511 67.582 21.2007 72.0522 25.7823 75.4671C30.364 78.8819 35.7021 81.1404 41.3433 82.0508C46.9846 82.9612 52.7622 82.4966 58.1854 80.6963L58.43 81.4331Z" fill="#EFEFEF"/>
<path d="M60.9728 13.5179C61.1562 13.5944 61.3389 13.6724 61.521 13.752L61.0337 14.8678C60.8577 14.791 60.6811 14.7156 60.5039 14.6416L60.9728 13.5179Z" fill="#EFEFEF" fill-opacity="0.7"/>
<path d="M61.8749 13.9088C62.0562 13.9903 62.2367 14.0732 62.4166 14.1576L61.8992 15.2599C61.7253 15.1783 61.5508 15.0981 61.3757 15.0194L61.8749 13.9088Z" fill="#EFEFEF" fill-opacity="0.7"/>
</svg>
