<svg width="76" height="76" viewBox="0 0 76 76" fill="none" xmlns="http://www.w3.org/2000/svg">
<path fill-rule="evenodd" clip-rule="evenodd" d="M35.9334 0.954068C24.8754 1.58504 14.8014 7.0263 8.14643 15.9625C3.92616 21.6294 1.47176 28.2807 0.947725 35.4704C0.843602 36.8989 0.901129 40.4853 1.04973 41.8323C2.19898 52.2456 7.45617 61.4829 15.7783 67.7113C23.4493 73.4524 33.0168 75.9947 42.5606 74.828C45.7381 74.4395 48.6643 73.6877 51.7841 72.4579C53.2084 71.8965 56.0808 70.4518 57.4032 69.6318C66.2408 64.1517 72.3377 55.4611 74.3918 45.4158C74.9298 42.7852 75.1061 40.9462 75.1053 37.9757C75.1046 35.5704 75.0402 34.6214 74.7346 32.5151C73.9738 27.2711 71.9228 21.9691 68.9124 17.4642C67.4814 15.3228 66.1796 13.749 64.2231 11.7949C62.1955 9.76979 60.5488 8.42449 58.2747 6.93517C51.6754 2.61335 43.8007 0.505203 35.9334 0.954068ZM34.157 18.3276V21.7848L34.7824 21.7405C35.1263 21.7161 35.8642 21.6962 36.4221 21.6962H37.4365V18.2833V14.8704H39.4861H41.5358V18.3738V21.8774L42.3044 21.9639C46.7743 22.4668 49.6251 23.9156 50.8432 26.3036C51.6258 27.8379 51.8517 30.096 51.4045 31.9159C51.2565 32.5181 50.8411 33.4071 50.455 33.9475C50.0474 34.5184 49.2511 35.2424 48.6146 35.621C48.0992 35.9276 47.9965 36.0303 48.2056 36.0303C48.4221 36.0303 49.7295 36.5042 50.2913 36.7862C52.1856 37.7373 53.2938 39.0566 53.8131 40.979C53.9886 41.6289 53.9976 41.7403 54.001 43.2998C54.0039 44.6109 53.9801 45.0607 53.8822 45.5523C53.3848 48.0501 52.2432 49.9161 50.5087 51.0666C49.5662 51.6917 48.1142 52.2959 46.6258 52.6823C45.5212 52.9691 43.1518 53.2972 42.1734 53.2989C41.4674 53.3001 41.5358 52.9258 41.5358 56.7881V60.1937H39.4861H37.4365V56.8149V53.4361H35.7967H34.157V56.8149V60.1937H31.903H29.6489L29.6312 56.7637L29.6136 53.3337L29.0328 53.285C28.7134 53.2582 26.861 53.216 24.9164 53.1913C21.9155 53.1531 21.3807 53.1315 21.3807 53.0486C21.3807 52.9466 22.1072 48.5307 22.167 48.2696C22.201 48.1208 22.211 48.1199 24.0626 48.099C25.7837 48.0795 25.9443 48.0673 26.1912 47.938C26.3403 47.8597 26.514 47.694 26.5847 47.5625C26.7063 47.3361 26.7105 46.9505 26.6934 37.4638C26.6765 28.0619 26.6698 27.5887 26.5507 27.3494C26.3636 26.9737 25.9794 26.6134 25.553 26.4135C25.177 26.2374 25.1515 26.2351 23.345 26.2142L21.5174 26.1931V24.047V21.9009H25.5825H29.6477V18.3857V14.8704H31.9023H34.157V18.3276ZM34.157 30.8192V35.0276L36.0871 34.9859C38.1827 34.9406 38.7665 34.8855 39.9644 34.62C41.1239 34.3629 41.6792 34.127 42.3861 33.5909C43.3605 32.8519 43.7067 32.2308 43.7737 31.101C43.8189 30.3417 43.7112 29.7854 43.3935 29.1363C42.9187 28.1661 42.1277 27.5689 40.7415 27.1339C39.5046 26.7457 38.2434 26.6109 35.848 26.6108L34.157 26.6107V30.8192ZM35.0622 39.1529L34.157 39.1742V43.7796V48.385H35.7912C37.8108 48.385 39.2216 48.2928 40.5109 48.0764C41.9441 47.8359 42.6063 47.6257 43.6879 47.0683C44.6231 46.5863 45.3524 45.703 45.6085 44.7422C45.7332 44.2743 45.7282 43.2529 45.5988 42.7566C45.3307 41.728 44.5236 40.7699 43.5171 40.2855C42.1249 39.6155 40.7986 39.325 38.4271 39.1707C37.4459 39.1069 37.1056 39.1051 35.0622 39.1529Z" fill="#FF9B02"/>
</svg>
