<svg width="76" height="76" viewBox="0 0 76 76" fill="none" xmlns="http://www.w3.org/2000/svg">
<circle cx="37.9998" cy="38" r="37.1053" fill="#494949"/>
<path d="M71.4166 21.8718C74.4605 28.1787 75.6575 35.2183 74.8692 42.1769C74.0809 49.1355 71.3394 55.7289 66.9617 61.1951C62.5839 66.6612 56.7487 70.7769 50.1304 73.0663C43.5121 75.3558 36.3811 75.7256 29.5615 74.133L37.9998 38L71.4166 21.8718Z" fill="#7C7C7C"/>
<g filter="url(#filter0_di_527_13699)">
<path fill-rule="evenodd" clip-rule="evenodd" d="M62.2908 26.6163C65.8744 32.8982 64.8764 37.5037 58.3569 44.766C53.1149 50.6074 35.9417 60.2277 32.4634 59.2718C28.9851 58.3159 19.14 41.2706 17.6193 33.5707C15.7268 23.9966 17.2224 19.5279 23.5131 15.9597C29.6668 12.469 36.3613 13.6434 40.2491 18.8961L42.6634 22.156L46.4045 20.5876C52.4306 18.0595 58.7851 20.4712 62.2908 26.6163Z" fill="url(#paint0_linear_527_13699)"/>
</g>
<defs>
<filter id="filter0_di_527_13699" x="13.8545" y="10.9689" width="57.4854" height="56.3691" filterUnits="userSpaceOnUse" color-interpolation-filters="sRGB">
<feFlood flood-opacity="0" result="BackgroundImageFix"/>
<feColorMatrix in="SourceAlpha" type="matrix" values="0 0 0 0 0 0 0 0 0 0 0 0 0 0 0 0 0 0 127 0" result="hardAlpha"/>
<feOffset dx="2" dy="3"/>
<feGaussianBlur stdDeviation="2.5"/>
<feComposite in2="hardAlpha" operator="out"/>
<feColorMatrix type="matrix" values="0 0 0 0 0 0 0 0 0 0 0 0 0 0 0 0 0 0 0.25 0"/>
<feBlend mode="normal" in2="BackgroundImageFix" result="effect1_dropShadow_527_13699"/>
<feBlend mode="normal" in="SourceGraphic" in2="effect1_dropShadow_527_13699" result="shape"/>
<feColorMatrix in="SourceAlpha" type="matrix" values="0 0 0 0 0 0 0 0 0 0 0 0 0 0 0 0 0 0 127 0" result="hardAlpha"/>
<feOffset dx="-2" dy="-3"/>
<feGaussianBlur stdDeviation="2"/>
<feComposite in2="hardAlpha" operator="arithmetic" k2="-1" k3="1"/>
<feColorMatrix type="matrix" values="0 0 0 0 0 0 0 0 0 0 0 0 0 0 0 0 0 0 0.25 0"/>
<feBlend mode="normal" in2="shape" result="effect2_innerShadow_527_13699"/>
</filter>
<linearGradient id="paint0_linear_527_13699" x1="44.0022" y1="21.0429" x2="39.2172" y2="57.6135" gradientUnits="userSpaceOnUse">
<stop stop-color="#4E6EFF"/>
<stop offset="0.515625" stop-color="#708AFF"/>
<stop offset="1" stop-color="#A0B2FF"/>
</linearGradient>
</defs>
</svg>
