<svg width="94" height="94" viewBox="0 0 94 94" fill="none" xmlns="http://www.w3.org/2000/svg">
<path d="M32.1273 75.314C31.8705 75.8029 31.265 75.9923 30.784 75.7208C24.2551 72.0347 19.1761 66.2327 16.3862 59.2735C16.1807 58.7608 16.4486 58.1857 16.9672 57.9958L19.1093 57.2115C19.6279 57.0217 20.2007 57.2891 20.4085 57.8008C22.83 63.7631 27.1864 68.7396 32.776 71.9288C33.2557 72.2025 33.4449 72.8056 33.1881 73.2945L32.1273 75.314Z" fill="white" fill-opacity="0.7"/>
<path d="M62.7812 14.3313C69.7649 17.705 75.4837 23.2278 79.0987 30.0897L78.7389 30.2792C75.1644 23.4943 69.5097 18.0334 62.6043 14.6975L62.7812 14.3313Z" fill="#F6F6F6"/>
<path d="M62.4227 15.0738C69.2477 18.3708 74.8365 23.7681 78.3693 30.474L78.0177 30.6592C74.5245 24.0285 68.9983 18.6917 62.2498 15.4317L62.4227 15.0738Z" fill="#F6F6F6"/>
<path d="M58.43 81.4332C52.8882 83.2728 46.9842 83.7476 41.2197 82.8173C35.4551 81.887 30.0002 79.5791 25.3184 76.0895C20.6366 72.6 16.8663 68.0321 14.3276 62.7736C11.7889 57.5152 10.557 51.7217 10.7364 45.8853C10.9158 40.0489 12.5012 34.342 15.3581 29.2495C18.2149 24.1569 22.2587 19.8291 27.146 16.6337C32.0333 13.4384 37.6196 11.4698 43.4304 10.8953C49.2412 10.3208 55.1049 11.1574 60.5233 13.3339L60.2339 14.0542C54.9315 11.9243 49.1933 11.1057 43.5068 11.6679C37.8203 12.2301 32.3535 14.1565 27.5708 17.2835C22.7881 20.4105 18.8308 24.6457 16.0351 29.6293C13.2394 34.6129 11.6879 40.1977 11.5123 45.9092C11.3367 51.6207 12.5423 57.2902 15.0267 62.4361C17.511 67.582 21.2007 72.0523 25.7823 75.4671C30.364 78.882 35.7021 81.1405 41.3433 82.0509C46.9846 82.9613 52.7622 82.4966 58.1854 80.6964L58.43 81.4332Z" fill="#EFEFEF"/>
<path d="M60.9728 13.518C61.1562 13.5945 61.3389 13.6725 61.521 13.752L61.0337 14.8679C60.8577 14.791 60.6811 14.7156 60.5039 14.6417L60.9728 13.518Z" fill="#EFEFEF" fill-opacity="0.7"/>
<path d="M61.8749 13.9089C62.0562 13.9903 62.2367 14.0733 62.4166 14.1577L61.8992 15.2599C61.7253 15.1783 61.5508 15.0982 61.3757 15.0194L61.8749 13.9089Z" fill="#EFEFEF" fill-opacity="0.7"/>
</svg>
