<svg width="42" height="42" viewBox="0 0 42 42" fill="none" xmlns="http://www.w3.org/2000/svg">
<circle cx="21" cy="21" r="21" fill="black" fill-opacity="0.6"/>
<path d="M27 18.375V15.75C27 14.1587 26.3679 12.6326 25.2426 11.5074C24.1174 10.3821 22.5913 9.75 21 9.75C19.4087 9.75 17.8826 10.3821 16.7574 11.5074C15.6321 12.6326 15 14.1587 15 15.75V18.375H13.125V24.375C13.125 28.7173 16.6577 32.25 21 32.25C25.3423 32.25 28.875 28.7173 28.875 24.375V18.375H27ZM16.5 15.75C16.5 14.5565 16.9741 13.4119 17.818 12.568C18.6619 11.7241 19.8065 11.25 21 11.25C22.1935 11.25 23.3381 11.7241 24.182 12.568C25.0259 13.4119 25.5 14.5565 25.5 15.75V18.375H16.5V15.75ZM27.375 24.375C27.375 27.8902 24.5152 30.75 21 30.75C17.4848 30.75 14.625 27.8902 14.625 24.375V19.875H27.375V24.375Z" fill="white"/>
</svg>
