<svg width="76" height="76" viewBox="0 0 76 76" fill="none" xmlns="http://www.w3.org/2000/svg">
<path d="M38.4122 1.7193C18.1784 1.7193 1.71924 18.1785 1.71924 38.4123C1.71924 58.6461 18.1784 75.1053 38.4122 75.1053C58.646 75.1053 75.1052 58.6461 75.1052 38.4123C75.1052 18.1785 58.646 1.7193 38.4122 1.7193ZM52.7703 57.5564H25.1421L29.8771 40.6474L22.9964 43.1058C22.8193 43.168 22.6358 43.1983 22.4587 43.1983C21.8031 43.1983 21.1889 42.7915 20.9575 42.139C20.6592 41.3094 21.0931 40.3969 21.9227 40.1018L30.93 36.8855L36.8759 15.6483C37.1152 14.7995 38.0054 14.3066 38.8414 14.5427C39.6901 14.7788 40.1862 15.661 39.9469 16.5082L34.6089 35.571L44.256 32.125C45.0824 31.8251 45.9981 32.2606 46.2932 33.0902C46.5916 33.9198 46.1576 34.8323 45.328 35.1275L33.556 39.3312L29.3475 54.3658H52.7703C53.6526 54.3658 54.3657 55.0789 54.3657 55.9611C54.3657 56.8433 53.6526 57.5564 52.7703 57.5564Z" fill="#213A74"/>
</svg>
