<svg width="76" height="76" viewBox="0 0 76 76" fill="none" xmlns="http://www.w3.org/2000/svg">
<path fill-rule="evenodd" clip-rule="evenodd" d="M35.0338 0.973122C26.0355 1.73196 17.6563 5.70147 11.3857 12.1759C6.85723 16.8516 3.55453 22.7528 2.04847 28.8591C0.4916 35.1721 0.510032 41.3409 2.1042 47.4044C2.80796 50.0813 3.4377 51.747 4.78426 54.4927C6.62951 58.2551 8.64994 61.0918 11.6502 64.1321C17.5396 70.1002 24.8385 73.7238 33.3813 74.9206C35.3547 75.197 41.1268 75.1549 43.1496 74.8493C49.5479 73.8825 55.1897 71.5627 60.1587 67.8558C68.3561 61.7401 73.4691 53.0066 74.9119 42.6563C75.2004 40.5861 75.1577 35.0173 74.8374 32.9257C73.8255 26.3196 71.5102 20.7483 67.6132 15.5427C66.4077 13.9325 62.7112 10.1392 61.166 8.92665C58.2979 6.67598 54.0719 4.30563 50.7457 3.0819C48.7393 2.34383 45.8101 1.61781 43.4473 1.27303C41.1289 0.93478 37.1639 0.793468 35.0338 0.973122ZM55.0064 23.1951V27.4068H48.7656H42.5248V30.1456V32.8843L44.1576 32.983C52.3663 33.4796 59.1155 35.2527 60.1558 37.1859C60.8249 38.4288 59.5975 39.5782 56.4878 40.6207C53.8813 41.4945 48.764 42.3639 44.9195 42.5861C44.1213 42.6322 43.256 42.7024 42.9965 42.7422L42.5248 42.8147V51.5946V60.3747H37.953H33.3813V51.5969V42.8194L32.7644 42.7424C32.4251 42.7001 31.4945 42.6258 30.6963 42.5774C29.898 42.5289 28.2326 42.3619 26.9953 42.206C17.676 41.0324 13.2327 38.4357 16.734 36.2091C19.181 34.6529 25.0733 33.3869 31.7485 32.983L33.3813 32.8843V30.1456V27.4068H27.1405H20.8996V23.1951V18.9833H37.953H55.0064V23.1951ZM32.3653 33.6004C32.0859 33.6264 30.943 33.7182 29.8255 33.8043C24.1665 34.2405 19.276 35.4086 18.0742 36.6114C16.7999 37.8864 18.7232 39.1781 23.2713 40.1016C27.4172 40.9435 31.4128 41.2591 37.953 41.2612C44.2764 41.263 48.3791 40.952 52.3214 40.1715C58.1319 39.0212 59.7862 37.3123 56.5303 35.8235C54.6863 34.9803 50.273 34.132 46.008 33.8008C44.9304 33.7173 43.7071 33.6216 43.2897 33.5885L42.5305 33.5282L42.4914 36.6035L42.4522 39.679L40.3179 39.7952C39.144 39.8591 37.1194 39.8591 35.8187 39.7952L33.4538 39.679L33.4147 36.5928C33.3788 33.7686 33.3541 33.5086 33.1244 33.5298C32.9864 33.5426 32.6447 33.5744 32.3653 33.6004Z" fill="#1BA37A"/>
</svg>
