<svg width="36" height="36" viewBox="0 0 36 36" fill="none" xmlns="http://www.w3.org/2000/svg">
<circle cx="18.0001" cy="18" r="14.2105" fill="white"/>
<path d="M1.16288 24.3649C0.286674 22.047 -0.101525 19.5732 0.0225954 17.0984L2.41548 17.2184C2.30788 19.3638 2.64441 21.5083 3.40399 23.5177L1.16288 24.3649Z" fill="#F7F7F7"/>
<path d="M14.9881 28.8195C14.1258 31.917 10.8205 33.7983 8.19044 31.9487C7.46947 31.4417 6.78652 30.8779 6.14854 30.2612C4.10715 28.2881 2.59072 25.8365 1.73682 23.1288C0.882916 20.4211 0.718575 17.5431 1.2587 14.7558C1.79883 11.9686 3.02634 9.36027 4.82985 7.16756C6.63336 4.97486 8.95581 3.26715 11.5865 2.19937C14.2172 1.13159 17.0728 0.737535 19.8944 1.05295C22.7159 1.36836 25.4141 2.38326 27.744 4.00557C28.4722 4.51258 29.1572 5.07391 29.7938 5.68351C32.1161 7.90727 30.9078 11.5135 28.0349 12.9572L25.2345 14.3644C23.9082 15.031 22.3089 14.4093 21.0907 13.5611C20.3516 13.0465 19.4958 12.7245 18.6008 12.6245C17.7058 12.5244 16.8 12.6494 15.9656 12.9881C15.1312 13.3268 14.3945 13.8685 13.8224 14.564C13.2504 15.2595 12.861 16.0869 12.6897 16.971C12.5183 17.8551 12.5705 18.768 12.8413 19.6268C13.1122 20.4857 13.5932 21.2633 14.2407 21.8892C15.308 22.9209 16.2266 24.3702 15.8286 25.8002L14.9881 28.8195Z" fill="white"/>
<path d="M5.06566 11.388C6.14531 9.27604 7.72572 7.46055 9.66881 6.10018C11.6119 4.73981 13.8586 3.87595 16.2125 3.58409L16.3599 4.77298C14.2001 5.04078 12.1387 5.83339 10.3559 7.08157C8.57305 8.32975 7.12298 9.99552 6.13237 11.9333L5.06566 11.388Z" fill="#CECECE"/>
<path d="M3.96501 13.1717C3.99763 13.0769 4.03122 12.9824 4.06575 12.8883L4.22882 12.9481C4.19469 13.0411 4.1615 13.1345 4.12926 13.2282L3.96501 13.1717Z" fill="#FF9B02"/>
<path d="M3.76815 13.7872C3.79661 13.691 3.82605 13.5952 3.85646 13.4996L4.02198 13.5523C3.99193 13.6467 3.96283 13.7415 3.9347 13.8365L3.76815 13.7872Z" fill="#676767"/>
<path d="M3.61336 14.3506C3.63802 14.2534 3.66366 14.1565 3.69028 14.0598L3.85774 14.1059C3.83143 14.2015 3.80609 14.2973 3.78172 14.3934L3.61336 14.3506Z" fill="#676767"/>
<path d="M10.0568 30.5378C9.00657 29.8725 8.04408 29.0778 7.19197 28.1724L7.31845 28.0534C8.16059 28.9481 9.11182 29.7335 10.1498 30.3911L10.0568 30.5378Z" fill="#960000"/>
<path d="M4.20994 12.5112C4.24703 12.418 4.28505 12.3252 4.32402 12.2328L4.48407 12.3003C4.44556 12.3916 4.40797 12.4833 4.37132 12.5754L4.20994 12.5112Z" fill="#676767"/>
<path d="M4.50387 11.8237C4.5456 11.7325 4.58825 11.6417 4.63182 11.5514L4.78827 11.6269C4.74521 11.7161 4.70305 11.8058 4.66181 11.8959L4.50387 11.8237Z" fill="#FF9B02"/>
<path d="M23.9061 4.11747C24.4678 2.79735 26.0066 2.16687 27.2303 2.91564C29.7143 4.43556 31.7854 6.54661 33.2577 9.05913C33.983 10.2969 33.3233 11.8234 31.9927 12.3597C30.6622 12.8961 29.1693 12.2306 28.3697 11.0395C27.5103 9.7592 26.4208 8.6487 25.1571 7.76502C23.9814 6.94289 23.3445 5.43758 23.9061 4.11747Z" fill="#F7F7F7"/>
<path d="M12.5074 28.4569C12.2969 28.8577 11.7996 29.0143 11.4133 28.7782C9.21819 27.4368 7.4845 25.4563 6.4453 23.103C6.26241 22.6888 6.48333 22.2166 6.90849 22.061C7.33364 21.9053 7.80169 22.1254 7.98859 22.5378C8.88273 24.5106 10.3405 26.1759 12.1777 27.3232C12.5618 27.563 12.718 28.0561 12.5074 28.4569Z" fill="white" fill-opacity="0.7"/>
<path d="M30.3752 8.10693C30.8967 7.69001 31.6614 7.77255 32.0403 8.3223C32.3156 8.7217 32.5738 9.13266 32.814 9.55406C33.1447 10.1341 32.8871 10.8588 32.285 11.1475C31.683 11.4363 30.9652 11.1793 30.6277 10.6032C30.4751 10.3426 30.3144 10.0869 30.146 9.83624C29.7735 9.28209 29.8537 8.52385 30.3752 8.10693Z" fill="#DDDDDD" fill-opacity="0.7"/>
<path d="M11.2473 31.9225C9.41897 31.0357 7.78321 29.7975 6.43342 28.2785C5.08362 26.7596 4.04623 24.9896 3.38046 23.0697C2.71469 21.1499 2.43358 19.1177 2.5532 17.0892C2.67281 15.0606 3.1908 13.0756 4.07758 11.2472L4.33781 11.3734C3.4676 13.1676 2.95929 15.1156 2.84192 17.1062C2.72454 19.0968 3.00039 21.091 3.65371 22.975C4.30704 24.859 5.32504 26.5958 6.64961 28.0864C7.97417 29.577 9.57936 30.792 11.3735 31.6622L11.2473 31.9225Z" fill="#FF9B02"/>
<path d="M9.09878 5.34288C9.33473 5.17695 9.57527 5.01765 9.82012 4.86516L9.97301 5.11067C9.73274 5.2603 9.49669 5.41663 9.26516 5.57946L9.09878 5.34288Z" fill="#FF9B02"/>
<path d="M10.0165 4.74491C10.2636 4.59609 10.5148 4.4542 10.7698 4.31942L10.9049 4.57512C10.6547 4.70738 10.4082 4.84662 10.1657 4.99266L10.0165 4.74491Z" fill="#FF9B02"/>
<path d="M10.9792 4.2108C11.2362 4.07992 11.4969 3.95625 11.7608 3.83994L11.8774 4.10461C11.6184 4.21874 11.3626 4.3401 11.1104 4.46853L10.9792 4.2108Z" fill="#FF9B02"/>
<path d="M12.067 3.86599C12.0361 3.79235 12.0706 3.70723 12.1445 3.67701C12.1458 3.67648 12.1471 3.67595 12.1484 3.67541C12.2224 3.64521 12.3066 3.68181 12.3361 3.75602C12.3655 3.82991 12.3295 3.91386 12.2559 3.94394C12.1823 3.97402 12.0978 3.93931 12.067 3.86599Z" fill="#FF9B02"/>
<ellipse cx="25.4209" cy="3.94738" rx="0.473684" ry="0.473684" fill="#FF9B02"/>
<ellipse cx="27.316" cy="5.2105" rx="0.473683" ry="0.473685" fill="#FF9B02"/>
<ellipse cx="29.2105" cy="6.78948" rx="0.473685" ry="0.473684" fill="#FF9B02"/>
<path d="M24.0441 5.48862C26.7187 6.78065 28.9089 8.89578 30.2933 11.5237L30.1556 11.5963C28.7866 8.99783 26.621 6.90641 23.9763 5.62887L24.0441 5.48862Z" fill="#F6F6F6"/>
<path d="M23.9064 5.77298C26.5202 7.03564 28.6606 9.1027 30.0136 11.6709L29.8789 11.7419C28.5411 9.20243 26.4247 7.15855 23.8402 5.91004L23.9064 5.77298Z" fill="#F6F6F6"/>
<path d="M22.3777 31.1872C20.2553 31.8917 17.9942 32.0736 15.7865 31.7173C13.5788 31.361 11.4897 30.4771 9.69665 29.1407C7.90362 27.8043 6.45965 26.0549 5.48739 24.041C4.51514 22.0271 4.04332 19.8083 4.11203 17.5731C4.18073 15.3379 4.78793 13.1523 5.88204 11.2019C6.97615 9.2516 8.52484 7.59415 10.3966 6.37039C12.2683 5.14663 14.4077 4.39272 16.6332 4.1727C18.8586 3.95268 21.1042 4.27305 23.1793 5.10661L23.0685 5.38249C21.0378 4.56677 18.8402 4.25325 16.6624 4.46856C14.4846 4.68387 12.3909 5.42165 10.5593 6.61923C8.72759 7.81681 7.21203 9.43879 6.14133 11.3474C5.07064 13.256 4.47643 15.3949 4.40919 17.5823C4.34196 19.7697 4.80368 21.941 5.75513 23.9117C6.70659 25.8825 8.11966 27.5945 9.87432 28.9023C11.629 30.2101 13.6734 31.0751 15.8339 31.4238C17.9943 31.7724 20.207 31.5945 22.284 30.905L22.3777 31.1872Z" fill="#EFEFEF"/>
<path d="M23.3515 5.17711C23.4218 5.20642 23.4917 5.2363 23.5615 5.26676L23.3748 5.69411C23.3074 5.66467 23.2398 5.63579 23.1719 5.60747L23.3515 5.17711Z" fill="#EFEFEF" fill-opacity="0.7"/>
<path d="M23.697 5.32682C23.7664 5.35802 23.8356 5.38979 23.9045 5.42212L23.7063 5.84426C23.6397 5.81301 23.5729 5.7823 23.5058 5.75215L23.697 5.32682Z" fill="#EFEFEF" fill-opacity="0.7"/>
</svg>
