<svg width="16" height="13" viewBox="0 0 16 13" fill="none" xmlns="http://www.w3.org/2000/svg">
<path fill-rule="evenodd" clip-rule="evenodd" d="M3.28936 0.0951636C1.40594 0.677323 0.194364 2.0894 0.0194626 3.90657C-0.169753 5.87171 1.03204 8.16023 3.12947 9.82895C4.50966 10.927 7.69856 13.0018 8.00333 13C8.31875 12.9982 11.5558 10.9015 12.8749 9.84457C16.2309 7.15555 17.0038 3.28348 14.6081 1.16183C13.6136 0.281271 12.9444 0.0402523 11.4944 0.0402523C10.0861 0.0402523 9.37602 0.282915 8.48335 1.06959L8.00333 1.49261L7.52331 1.06959C7.25921 0.836961 6.77186 0.517521 6.44021 0.359692C5.76679 0.0391014 3.96104 -0.112316 3.28936 0.0951636Z" fill="#FF7070"/>
</svg>
